<svg xmlns="http://www.w3.org/2000/svg" fill="none" viewBox="0 0 490 1531">
<path fill-rule="evenodd" clip-rule="evenodd" d="M81.9757 1.62638C81.9757 2.52089 80.4008 3.25276 78.4742 3.25276C76.0774 3.25276 74.6562 4.66284 73.9669 7.72531C73.4136 10.186 72.3761 14.3935 71.6602 17.077L70.3594 21.9562L48.3286 22.3676C26.3067 22.7791 20.9741 23.9159 14.0329 29.6815C12.1487 31.2477 10.1019 32.5276 9.4868 32.5276C8.86993 32.5276 6.43422 36.0032 4.07455 40.2529C0.233668 47.1683 -0.186984 49.8535 0.0551698 65.8685C0.316767 83.1943 6.24862 139.387 13.0166 188.66C15.2861 205.192 17.2552 223.38 16.9211 224.75C16.6524 225.849 18.6586 244.161 22.0523 271.606C22.9926 279.209 24.4862 291.285 25.37 298.441C26.2555 305.597 27.7756 318.405 28.7495 326.903C30.54 342.537 31.62 347.844 34.2077 353.738C39.8568 366.606 47.3087 379.768 51.0418 383.472C53.4722 385.885 55.4624 388.373 55.4624 389.003C55.4624 391.127 76.4556 409.848 78.8365 409.848C80.1339 409.848 82.3415 411.312 83.7432 413.101C85.1449 414.89 87.3419 416.354 88.6269 416.354C89.9102 416.354 92.6693 417.817 94.755 419.607C96.8425 421.396 100.388 422.859 102.637 422.859C104.883 422.859 106.721 423.591 106.721 424.486C106.721 425.38 109.108 426.112 112.024 426.112C114.94 426.112 117.327 426.844 117.327 427.738C117.327 428.633 119.713 429.365 122.629 429.365C125.546 429.365 127.932 430.097 127.932 430.991C127.932 431.886 132.363 432.618 137.779 432.618C143.958 432.618 148.568 433.483 150.152 434.942C152.269 436.888 152.678 449.641 152.678 513.821C152.678 563.774 152.064 590.377 150.91 590.377C149.938 590.377 149.142 594.036 149.142 598.508C149.142 602.981 148.347 606.64 147.375 606.64C146.403 606.64 145.607 608.836 145.607 611.52C145.607 614.203 144.812 616.399 143.84 616.399C142.868 616.399 142.072 618.228 142.072 620.465C142.072 622.701 141.277 624.531 140.305 624.531C139.333 624.531 138.537 625.994 138.537 627.783C138.537 629.572 137.742 631.036 136.77 631.036C135.797 631.036 135.002 632.134 135.002 633.476C135.002 634.817 134.207 635.915 133.235 635.915C132.262 635.915 131.467 637.013 131.467 638.355C131.467 639.697 130.672 640.794 129.699 640.794C128.727 640.794 127.932 641.518 127.932 642.403C127.932 644.938 123.319 649.678 98.7391 672.392C86.0852 684.085 73.7937 696.213 71.4252 699.344C69.0567 702.475 65.8821 706.134 64.3726 707.476C62.8614 708.818 60.5017 711.927 59.1283 714.388C57.7567 716.849 55.9715 718.861 55.1637 718.861C54.3559 718.861 53.6949 719.82 53.6949 720.993C53.6949 722.167 52.3021 724.582 50.6017 726.362C46.2288 730.935 43.0896 736.289 43.0896 739.168C43.0896 740.523 42.2942 741.63 41.3221 741.63C40.3499 741.63 39.5545 742.59 39.5545 743.764C39.5545 744.938 38.0327 748.798 36.1714 752.341C34.3102 755.885 31.8515 763.524 30.7062 769.318C29.5608 775.111 27.8428 782.412 26.8865 785.542C23.9595 795.141 26.9784 831.99 32.0848 848.971C35.6164 860.715 50.7802 890.242 55.4731 894.51C55.9645 894.957 58.6794 898.174 61.5039 901.661C67.4146 908.949 90.1152 929.928 96.0064 933.543C99.6794 935.797 104.528 939.231 109.71 943.246C110.868 944.142 115.442 946.497 119.874 948.48C124.305 950.461 127.932 952.668 127.932 953.383C127.932 954.101 129.523 954.686 131.467 954.686C133.411 954.686 135.002 955.418 135.002 956.312C135.002 957.207 136.593 957.939 138.537 957.939C140.481 957.939 142.072 958.671 142.072 959.565C142.072 960.46 143.663 961.192 145.607 961.192C147.552 961.192 149.15 961.74 149.157 962.411C149.172 963.872 157.733 967.697 160.983 967.697C162.249 967.697 163.283 968.429 163.283 969.324C163.283 970.218 164.515 970.95 166.019 970.95C167.525 970.95 172.048 972.414 176.073 974.203C180.097 975.992 184.433 977.455 185.709 977.455C186.986 977.455 188.028 978.187 188.028 979.082C188.028 979.976 190.759 980.708 194.096 980.708C201.681 980.708 202.658 983.177 200.216 996.159C199.047 1002.36 198.082 1075.83 197.568 1197.83C197.124 1303.38 196.408 1391.25 195.979 1393.1C195.413 1395.53 192.758 1397.06 186.31 1398.68C181.423 1399.9 177.423 1401.5 177.423 1402.24C177.423 1402.97 175.832 1403.57 173.888 1403.57C171.944 1403.57 170.353 1404.14 170.353 1404.84C170.353 1405.55 168.165 1407.31 165.492 1408.77C158.164 1412.76 151.965 1418.09 153.266 1419.29C153.902 1419.87 155.82 1418.95 157.528 1417.23C159.235 1415.52 162.82 1413.08 165.492 1411.82C168.165 1410.56 170.353 1408.92 170.353 1408.17C170.353 1407.43 171.944 1406.82 173.888 1406.82C175.832 1406.82 177.423 1406.09 177.423 1405.19C177.423 1404.3 179.014 1403.57 180.958 1403.57C182.903 1403.57 184.493 1402.84 184.493 1401.94C184.493 1401.05 186.88 1400.31 189.796 1400.31C192.712 1400.31 195.099 1399.58 195.099 1398.69C195.099 1397.76 200.401 1397.06 207.472 1397.06C214.542 1397.06 219.844 1397.76 219.844 1398.69C219.844 1399.58 222.231 1400.31 225.147 1400.31C228.063 1400.31 230.45 1399.58 230.45 1398.69C230.45 1397.79 228.046 1397.06 225.11 1397.06H219.77L220.626 1216.94C221.096 1117.87 221.949 1026.39 222.524 1013.64L223.565 990.466H232.311C237.12 990.466 241.055 991.198 241.055 992.093C241.055 993.033 246.653 993.719 254.312 993.719C261.97 993.719 267.568 994.406 267.568 995.346C267.568 996.377 280.825 996.972 303.803 996.972C326.781 996.972 340.038 996.377 340.038 995.346C340.038 994.428 345.045 993.719 351.527 993.719C358.008 993.719 363.016 993.01 363.016 992.093C363.016 991.198 366.197 990.466 370.086 990.466C373.974 990.466 377.156 989.735 377.156 988.84C377.156 987.946 379.542 987.214 382.459 987.214C385.375 987.214 387.761 986.482 387.761 985.587C387.761 984.693 389.352 983.961 391.296 983.961C393.241 983.961 394.832 983.229 394.832 982.335C394.832 981.44 396.661 980.708 398.899 980.708C403.554 980.708 412.473 977.241 412.493 975.422C412.5 974.751 414.098 974.203 416.042 974.203C417.986 974.203 419.577 973.471 419.577 972.576C419.577 971.682 421.168 970.95 423.112 970.95C425.057 970.95 426.647 970.342 426.647 969.598C426.647 968.855 428.836 967.213 431.508 965.95C434.181 964.687 437.656 962.367 439.227 960.796C440.8 959.225 442.861 957.939 443.807 957.939C446.246 957.939 460.441 945.195 465.546 938.422C467.906 935.292 470.868 931.752 472.128 930.559C473.388 929.363 476.077 924.972 478.101 920.8C480.125 916.627 482.871 911.137 484.204 908.599C491.096 895.474 492.034 862.657 485.98 846.532C481.44 834.438 475.688 822.949 474.175 822.949C473.441 822.949 472.33 821.464 471.704 819.649C470.237 815.398 446.997 793.674 443.915 793.674C442.624 793.674 440.422 792.211 439.02 790.422C437.619 788.633 435.057 787.169 433.327 787.169C431.598 787.169 430.182 786.437 430.182 785.542C430.182 784.648 428.592 783.916 426.647 783.916C424.703 783.916 423.112 783.184 423.112 782.29C423.112 781.395 421.569 780.663 419.681 780.663C417.794 780.663 415.759 779.931 415.158 779.037C414.557 778.142 412.125 777.41 409.751 777.41C407.378 777.41 405.437 776.679 405.437 775.784C405.437 774.89 402.255 774.158 398.367 774.158C394.478 774.158 391.296 773.426 391.296 772.531C391.296 771.538 383.047 770.905 370.086 770.905C357.124 770.905 348.875 771.538 348.875 772.531C348.875 773.426 345.741 774.158 341.909 774.158C338.077 774.158 334.452 774.89 333.851 775.784C333.25 776.679 330.818 777.41 328.444 777.41C326.07 777.41 324.13 778.142 324.13 779.037C324.13 779.931 321.743 780.663 318.827 780.663C315.911 780.663 313.524 781.395 313.524 782.29C313.524 783.184 311.934 783.916 309.989 783.916C308.045 783.916 306.454 784.648 306.454 785.542C306.454 786.437 304.863 787.169 302.919 787.169C300.975 787.169 299.384 787.901 299.384 788.795C299.384 789.69 297.968 790.422 296.24 790.422C294.509 790.422 291.948 791.885 290.546 793.674C289.145 795.463 286.887 796.927 285.528 796.927C282.799 796.927 248.125 828.438 248.125 830.92C248.125 831.776 246.944 833.561 245.504 834.888C240.21 839.759 225.166 870.165 220.028 886.378C218.752 890.403 217.098 895.174 216.35 896.977C214.846 900.614 208.573 931.078 205.557 949.4C204.205 957.617 202.862 961.192 201.126 961.192C199.754 961.192 198.634 960.46 198.634 959.565C198.634 958.671 196.248 957.939 193.331 957.939C190.415 957.939 188.028 957.207 188.028 956.312C188.028 955.418 186.438 954.686 184.493 954.686C182.549 954.686 180.958 953.954 180.958 953.06C180.958 952.165 179.368 951.433 177.423 951.433C175.479 951.433 173.888 950.701 173.888 949.807C173.888 948.912 172.343 948.181 170.454 948.181C166.889 948.181 154.005 941.927 152.973 939.696C152.647 938.995 150.859 938.422 148.996 938.422C147.133 938.422 145.607 937.69 145.607 936.796C145.607 935.901 144.017 935.169 142.072 935.169C140.128 935.169 138.537 934.438 138.537 933.543C138.537 932.649 136.946 931.917 135.002 931.917C133.058 931.917 131.467 931.308 131.467 930.565C131.467 929.822 129.279 928.179 126.606 926.917C123.934 925.654 120.459 923.334 118.887 921.763C117.314 920.192 115.031 918.906 113.813 918.906C112.593 918.906 103.54 911.377 93.6927 902.177C79.2448 888.676 74.2073 882.634 67.5914 870.869C56.7969 851.674 52.5389 839.875 50.0326 822.222C46.8916 800.087 50.3542 775.553 59.0523 758.318C60.9666 754.526 62.5326 750.848 62.5326 750.144C62.5326 747.843 78.7481 724.743 86.193 716.442C90.1912 711.981 102.812 699.743 114.233 689.248C125.655 678.753 135.002 669.412 135.002 668.49C135.002 667.57 135.797 666.817 136.77 666.817C137.742 666.817 138.537 666.013 138.537 665.029C138.537 664.047 140.923 661.191 143.84 658.685C146.756 656.178 149.142 652.956 149.142 651.527C149.142 650.096 149.938 648.926 150.91 648.926C151.882 648.926 152.678 647.828 152.678 646.487C152.678 645.145 153.473 644.047 154.445 644.047C155.417 644.047 156.213 642.949 156.213 641.608C156.213 640.266 157.008 639.168 157.98 639.168C158.952 639.168 159.748 637.748 159.748 636.011C159.748 634.274 160.543 632.402 161.515 631.849C162.487 631.296 163.283 629.058 163.283 626.874C163.283 624.69 164.078 622.904 165.05 622.904C166.023 622.904 166.818 620.709 166.818 618.025C166.818 615.342 167.613 613.146 168.585 613.146C169.558 613.146 170.353 610.218 170.353 606.64C170.353 603.062 171.148 600.135 172.121 600.135C173.277 600.135 173.888 571.132 173.888 516.376V432.618H184.389C190.165 432.618 195.381 431.886 195.982 430.991C196.583 430.097 199.413 429.365 202.273 429.365C205.133 429.365 207.472 428.633 207.472 427.738C207.472 426.844 209.858 426.112 212.774 426.112C215.691 426.112 218.077 425.38 218.077 424.486C218.077 423.591 220.065 422.859 222.496 422.859C224.926 422.859 226.915 422.127 226.915 421.233C226.915 420.338 227.957 419.607 229.232 419.607C230.508 419.607 233.258 418.143 235.346 416.354C237.431 414.565 239.849 413.101 240.719 413.101C241.587 413.101 244.795 410.905 247.848 408.222C250.898 405.538 254.023 403.343 254.789 403.343C255.556 403.343 257.352 401.789 258.782 399.893C260.212 397.995 264.166 393.64 267.568 390.215C284.948 372.716 293.088 351.78 297.556 313.078C298.589 304.133 300.662 286.243 302.164 273.322C303.667 260.4 305.728 242.469 306.744 233.475C307.76 224.481 309.219 211.633 309.982 204.924C310.748 198.215 312.612 181.016 314.129 166.704C317.972 130.449 318.657 124.472 320.568 110.594C327.309 61.6464 326.8 47.5798 317.943 38.0752C316.971 37.0327 315.006 34.6257 313.576 32.7277C312.146 30.8281 309.959 29.2749 308.715 29.2749C307.472 29.2749 306.454 28.543 306.454 27.6485C306.454 26.754 304.863 26.0221 302.919 26.0221C300.975 26.0221 299.384 25.2902 299.384 24.3957C299.384 23.3922 290.251 22.7693 275.522 22.7693H251.66V15.3352C251.66 6.4177 248.758 3.25276 240.581 3.25276C231.464 3.25276 229.995 7.74971 230.329 34.6175C230.483 46.9488 230.983 57.9268 231.445 59.0133C231.904 60.0997 234.363 61.8822 236.91 62.9751C240.882 64.6779 242.259 64.4876 246.6 61.6431C250.997 58.7628 251.66 57.2779 251.66 50.3073V42.2859L272.429 42.2876C292.095 42.2892 293.473 42.5088 298.394 46.4023L303.593 50.5154L303.218 71.0062C303.013 82.277 302.265 92.3183 301.556 93.3202C300.848 94.3236 299.656 100.998 298.908 108.154C298.161 115.31 296.747 127.386 295.768 134.99C294.787 142.593 293.222 156.133 292.289 165.078C287.93 206.887 287.041 214.671 285.334 226.067C281.829 249.467 277.3 288.808 275.414 312.265C274.803 319.869 273.583 326.784 272.703 327.635C271.823 328.484 271.103 331.917 271.103 335.264C271.103 338.611 270.308 341.8 269.336 342.353C268.364 342.906 267.568 344.65 267.568 346.227C267.568 350.134 257.984 368.062 253.032 373.419C244.33 382.832 232.352 393.584 230.565 393.584C229.529 393.584 228.682 394.316 228.682 395.211C228.682 396.105 227.489 396.837 226.031 396.837C224.573 396.837 223.379 397.569 223.379 398.464C223.379 399.358 222.186 400.09 220.728 400.09C219.27 400.09 218.077 400.822 218.077 401.716C218.077 402.611 216.088 403.343 213.658 403.343C211.228 403.343 209.239 404.075 209.239 404.969C209.239 405.864 206.853 406.595 203.936 406.595C201.02 406.595 198.634 407.236 198.634 408.02C198.634 411.4 157.388 413.085 134.56 410.637C128.969 410.037 124.397 408.884 124.397 408.071C124.397 407.259 122.408 406.595 119.978 406.595C117.548 406.595 115.559 405.864 115.559 404.969C115.559 404.075 113.571 403.343 111.14 403.343C108.71 403.343 106.721 402.611 106.721 401.716C106.721 400.822 105.306 400.09 103.577 400.09C101.846 400.09 99.2852 398.626 97.8836 396.837C96.4819 395.048 94.3184 393.584 93.0741 393.584C91.8315 393.584 90.8134 392.853 90.8134 391.958C90.8134 391.064 89.9402 390.332 88.8709 390.332C87.0326 390.332 82.5095 386.3 73.6098 376.727C68.7297 371.475 56.8111 349.501 54.0873 340.727C52.9772 337.149 50.7431 322.512 49.1258 308.199C47.5067 293.887 45.4298 275.956 44.5107 268.353C43.5898 260.75 42.1299 248.674 41.2638 241.518C39.7189 228.723 38.0574 214.344 34.2183 180.528C33.1507 171.136 31.5299 157.962 30.6125 151.254C28.5445 136.112 26.1954 115.455 23.7721 91.0774C22.7487 80.7905 21.4142 69.253 20.8062 65.4391C19.6626 58.2554 22.0134 50.3707 26.8635 45.1321C29.0977 42.7185 32.6752 42.2859 50.4338 42.2859H71.3704V46.9227C71.3704 49.4729 72.2435 53.8641 73.3111 56.681C75.0875 61.3715 75.9023 61.8025 82.9708 61.8025C88.7931 61.8025 91.1386 61.03 92.5191 58.6571C93.5407 56.899 94.3485 45.0052 94.3485 31.7047C94.3485 7.83266 93.2314 3.25276 87.4038 3.25276C86.3627 3.25276 85.5107 2.52089 85.5107 1.62638C85.5107 0.731872 84.7154 0 83.7432 0C82.771 0 81.9757 0.731872 81.9757 1.62638ZM394.832 795.301C394.832 796.195 397.218 796.927 400.134 796.927C403.051 796.927 405.437 797.659 405.437 798.553C405.437 799.448 407.028 800.18 408.972 800.18C410.916 800.18 412.507 800.912 412.507 801.806C412.507 802.701 414.495 803.433 416.926 803.433C419.356 803.433 421.345 804.164 421.345 805.059C421.345 805.953 422.538 806.685 423.996 806.685C425.454 806.685 426.647 807.417 426.647 808.312C426.647 809.206 427.434 809.938 428.396 809.938C431.206 809.938 440.887 817.78 449.139 826.742C454.41 832.465 463.766 849.715 463.766 853.707C463.766 855.47 464.561 857.363 465.533 857.916C466.52 858.477 467.301 866.034 467.301 874.993C467.301 883.953 466.52 891.509 465.533 892.07C464.561 892.623 463.766 894.819 463.766 896.95C463.766 899.08 462.97 901.276 461.998 901.829C461.026 902.382 460.231 904.254 460.231 905.991C460.231 907.728 459.435 909.147 458.463 909.147C457.491 909.147 456.696 910.611 456.696 912.4C456.696 914.189 455.953 915.653 455.047 915.653C454.14 915.653 452.936 916.993 452.372 918.629C451.312 921.705 431.402 941.675 429.398 941.675C428.776 941.675 426.559 943.139 424.473 944.928C422.386 946.717 419.636 948.181 418.359 948.181C417.085 948.181 416.042 948.776 416.042 949.503C416.042 950.231 413.258 951.832 409.856 953.06C406.453 954.288 403.669 955.888 403.669 956.617C403.669 957.344 402.078 957.939 400.134 957.939C398.19 957.939 396.599 958.671 396.599 959.565C396.599 960.46 394.611 961.192 392.18 961.192C389.75 961.192 387.761 961.923 387.761 962.818C387.761 963.713 385.375 964.444 382.459 964.444C379.542 964.444 377.156 965.176 377.156 966.071C377.156 966.965 374.77 967.697 371.853 967.697C368.937 967.697 366.551 968.429 366.551 969.324C366.551 970.218 363.369 970.95 359.481 970.95C355.592 970.95 352.41 971.631 352.41 972.464C352.41 973.298 345.052 974.388 336.061 974.889C327.069 975.39 312.253 976.226 303.138 976.748C292.34 977.366 285.905 977.088 284.667 975.949C283.623 974.988 276.613 974.203 269.086 974.203C261.56 974.203 254.912 973.471 254.312 972.576C253.711 971.682 249.29 970.95 244.486 970.95C239.682 970.95 235.752 970.218 235.752 969.324C235.752 968.429 233.677 967.697 231.141 967.697C226.775 967.697 226.593 967.37 227.728 961.598C228.389 958.245 229.336 950.742 229.833 944.928C230.329 939.113 231.466 933.66 232.36 932.811C233.253 931.961 233.985 928.163 233.985 924.369C233.985 920.574 234.78 917.019 235.752 916.466C236.724 915.913 237.52 913.709 237.52 911.567C237.52 909.425 238.232 905.992 239.104 903.938C239.975 901.884 241.642 896.909 242.81 892.884C243.978 888.858 245.652 884.295 246.529 882.741C247.407 881.188 248.125 879.126 248.125 878.162C248.125 874.951 264.261 846.737 269.905 840.078C277.433 831.197 294.083 816.444 296.581 816.444C297.692 816.444 299.75 814.98 301.152 813.191C302.553 811.402 304.717 809.938 305.961 809.938C307.204 809.938 308.222 809.206 308.222 808.312C308.222 807.417 309.812 806.685 311.757 806.685C313.701 806.685 315.292 805.953 315.292 805.059C315.292 804.164 317.28 803.433 319.711 803.433C322.141 803.433 324.13 802.701 324.13 801.806C324.13 800.912 325.72 800.18 327.665 800.18C329.609 800.18 331.2 799.448 331.2 798.553C331.2 797.659 333.586 796.927 336.502 796.927C339.419 796.927 341.805 796.195 341.805 795.301C341.805 794.289 351.822 793.674 368.318 793.674C384.815 793.674 394.832 794.289 394.832 795.301ZM232.217 1401.94C232.217 1402.84 234.206 1403.57 236.636 1403.57C239.066 1403.57 241.055 1404.3 241.055 1405.19C241.055 1406.09 242.248 1406.82 243.706 1406.82C245.164 1406.82 246.358 1407.55 246.358 1408.45C246.358 1409.34 247.506 1410.07 248.912 1410.07C252.058 1410.07 268.811 1425.5 270.276 1429.75C270.861 1431.45 271.909 1432.84 272.604 1432.84C273.299 1432.84 274.905 1436.32 276.174 1440.57C277.443 1444.82 279.287 1450.27 280.272 1452.68C282.716 1458.67 280.59 1476.44 276.273 1486.11C271.741 1496.25 269.38 1499.42 259.354 1508.84C253.378 1514.45 247.213 1519.04 245.656 1519.04C244.097 1519.04 242.822 1519.77 242.822 1520.67C242.822 1521.56 241.279 1522.29 239.392 1522.29C237.504 1522.29 235.469 1523.03 234.868 1523.92C234.268 1524.81 231.881 1525.55 229.566 1525.55C227.25 1525.55 224.864 1526.28 224.263 1527.17C222.809 1529.34 227.337 1529.24 233.46 1526.97C254.476 1519.18 267.943 1508.25 276.394 1492.13C291.837 1462.66 283.287 1431.79 253.529 1409.56C243.784 1402.28 232.217 1398.14 232.217 1401.94ZM149.142 1423.08C149.142 1423.98 149.938 1424.71 150.91 1424.71C151.882 1424.71 152.678 1423.98 152.678 1423.08C152.678 1422.19 151.882 1421.46 150.91 1421.46C149.938 1421.46 149.142 1422.19 149.142 1423.08ZM144.282 1428.77C143.067 1430.04 142.072 1432.21 142.072 1433.59C142.072 1434.97 141.277 1436.1 140.305 1436.1C139.333 1436.1 138.537 1437.56 138.537 1439.35C138.537 1441.14 139.333 1442.6 140.305 1442.6C141.277 1442.6 142.072 1441.14 142.072 1439.35C142.072 1437.56 142.868 1436.1 143.84 1436.1C144.812 1436.1 145.607 1434.63 145.607 1432.84C145.607 1431.05 146.403 1429.59 147.375 1429.59C148.347 1429.59 149.142 1428.86 149.142 1427.96C149.142 1425.67 146.885 1426.05 144.282 1428.77ZM199.878 1440.07C186.567 1444.44 178.325 1458.71 182.623 1469.95C191.049 1491.97 223.45 1494.57 233.928 1474.06C238.117 1465.86 238.292 1463.57 235.316 1455.73C231.941 1446.83 218.664 1436.64 214.927 1440.08C214.314 1440.64 215.567 1441.53 217.713 1442.04C219.857 1442.56 221.612 1443.63 221.612 1444.42C221.612 1445.21 222.607 1445.86 223.821 1445.86C225.037 1445.87 227.82 1448.29 230.008 1451.25C237.843 1461.84 233.559 1476.73 221.112 1482.17C207.781 1487.99 193.844 1483.99 186.703 1472.29C184.069 1467.97 183.742 1455.61 186.261 1455.61C187.233 1455.61 188.028 1454.46 188.028 1453.06C188.028 1451.65 189.024 1449.63 190.238 1448.57C192.408 1446.68 205.798 1440.37 211.007 1438.79C212.797 1438.24 212.511 1437.96 210.123 1437.92C208.179 1437.89 203.569 1438.86 199.878 1440.07ZM135.002 1462.93C135.002 1472.15 135.716 1478.38 136.77 1478.38C137.823 1478.38 138.537 1472.15 138.537 1462.93C138.537 1453.71 137.823 1447.48 136.77 1447.48C135.716 1447.48 135.002 1453.71 135.002 1462.93ZM138.537 1486.51C138.537 1488.3 139.333 1489.77 140.305 1489.77C141.277 1489.77 142.072 1488.3 142.072 1486.51C142.072 1484.72 141.277 1483.26 140.305 1483.26C139.333 1483.26 138.537 1484.72 138.537 1486.51ZM142.072 1493.83C142.072 1495.17 142.868 1496.27 143.84 1496.27C144.812 1496.27 145.607 1497.37 145.607 1498.71C145.607 1500.05 146.403 1501.15 147.375 1501.15C148.347 1501.15 149.142 1500.05 149.142 1498.71C149.142 1497.37 148.347 1496.27 147.375 1496.27C146.403 1496.27 145.607 1495.17 145.607 1493.83C145.607 1492.49 144.812 1491.39 143.84 1491.39C142.868 1491.39 142.072 1492.49 142.072 1493.83ZM149.142 1503.75C149.142 1506.34 167.09 1519.91 176.046 1524.08C186.019 1528.73 194.577 1530.34 192.447 1527.17C191.846 1526.28 189.017 1525.55 186.157 1525.55C183.297 1525.55 180.958 1524.81 180.958 1523.92C180.958 1523.03 179.368 1522.29 177.423 1522.29C175.479 1522.29 173.888 1521.61 173.888 1520.78C173.888 1519.94 172.25 1518.78 170.247 1518.2C168.244 1517.61 163.095 1513.9 158.804 1509.96C151.295 1503.05 149.142 1501.66 149.142 1503.75ZM201.377 1530.46C205.317 1531.18 211.282 1531.18 214.634 1530.45C219.505 1529.4 218.068 1529.13 207.472 1529.14C196.004 1529.15 195.182 1529.33 201.377 1530.46Z" fill="#4C5489" fill-opacity="0.2"/>
</svg>